<svg width="16" height="19" viewBox="0 0 16 19" fill="none" xmlns="http://www.w3.org/2000/svg">
<path fill-rule="evenodd" clip-rule="evenodd" d="M8.0001 7.79998C8.95488 7.79998 9.87055 7.42069 10.5457 6.74556C11.2208 6.07043 11.6001 5.15476 11.6001 4.19998C11.6001 3.2452 11.2208 2.32952 10.5457 1.65439C9.87055 0.97926 8.95488 0.599976 8.0001 0.599976C7.04532 0.599976 6.12964 0.97926 5.45451 1.65439C4.77938 2.32952 4.4001 3.2452 4.4001 4.19998C4.4001 5.15476 4.77938 6.07043 5.45451 6.74556C6.12964 7.42069 7.04532 7.79998 8.0001 7.79998ZM2.89875 18.6C1.07696 18.6 -0.457661 17.0686 0.23951 15.3854C0.661649 14.3663 1.28039 13.4403 2.0604 12.6603C2.84041 11.8803 3.76642 11.2615 4.78556 10.8394C5.80469 10.4172 6.89699 10.2 8.0001 10.2C9.1032 10.2 10.1955 10.4172 11.2146 10.8394C12.2338 11.2615 13.1598 11.8803 13.9398 12.6603C14.7198 13.4403 15.3385 14.3663 15.7607 15.3854C16.4579 17.0686 14.9232 18.6 13.1014 18.6H2.89875Z" fill="#F53838"/>
</svg>
