<svg width="25" height="24" viewBox="0 0 25 24" fill="none" xmlns="http://www.w3.org/2000/svg">
<path d="M11.4491 16.7299C11.3179 16.7302 11.1878 16.7045 11.0665 16.6544C10.9452 16.6043 10.8349 16.5307 10.7421 16.4379L6.50012 12.1949C6.40455 12.1027 6.32829 11.9924 6.2758 11.8705C6.2233 11.7485 6.19563 11.6173 6.19438 11.4845C6.19313 11.3517 6.21834 11.22 6.26854 11.0971C6.31873 10.9742 6.3929 10.8625 6.48673 10.7685C6.58055 10.6746 6.69215 10.6002 6.81501 10.5499C6.93787 10.4995 7.06953 10.4741 7.20231 10.4752C7.33509 10.4762 7.46633 10.5037 7.58837 10.556C7.71041 10.6083 7.82081 10.6845 7.91312 10.7799L11.4481 14.3149L17.8131 7.95189C18.0006 7.76425 18.255 7.65879 18.5203 7.65869C18.7855 7.6586 19.04 7.76389 19.2276 7.95139C19.4153 8.1389 19.5207 8.39327 19.5208 8.65854C19.5209 8.92381 19.4156 9.17825 19.2281 9.36589L12.1561 16.4379C12.0633 16.5307 11.9531 16.6043 11.8317 16.6544C11.7104 16.7045 11.5804 16.7302 11.4491 16.7299Z" fill="#2FAB73"/>
</svg>
