<svg width="85" height="27" viewBox="0 0 85 27" fill="none" xmlns="http://www.w3.org/2000/svg">
<path fill-rule="evenodd" clip-rule="evenodd" d="M0.00537109 25.5724H5.46221V15.8897H14.3689V25.5724H19.8257V1.61377H14.3689V11.2965H5.46221V1.61377H0.00537109V25.5724Z" fill="#223232"/>
<path fill-rule="evenodd" clip-rule="evenodd" d="M35.82 14.9587H29.1088L29.1578 14.6037C29.2218 14.3657 29.2633 14.0959 29.3442 13.8572C29.3858 13.7564 29.4364 13.6503 29.4714 13.5486C29.524 13.3951 29.5921 13.2631 29.6617 13.1161C29.666 13.1077 29.6783 13.0833 29.6831 13.0753L30.3223 12.3113C30.3698 12.2817 30.3569 12.2977 30.4041 12.2681L31.0741 11.8449C31.0805 11.8417 31.0886 11.8377 31.095 11.8345L31.2192 11.7713C31.2259 11.7682 31.2339 11.7644 31.2408 11.7615L31.2863 11.7445C31.2939 11.7419 31.3025 11.7398 31.3103 11.7373L31.7493 11.6132C31.8681 11.589 31.9821 11.6238 32.0977 11.5854L32.4643 11.5448C32.5854 11.5454 32.7598 11.5339 32.8733 11.5437C32.9245 11.5481 32.9085 11.5454 32.9531 11.5579L33.2485 11.6068C33.3968 11.6178 33.5983 11.6903 33.7439 11.7373L34.42 12.0925C34.4259 12.0959 34.4345 12.0998 34.4405 12.1032C34.5699 12.178 34.6673 12.2958 34.795 12.3731L35.2156 12.8879C35.2258 12.9037 35.2475 12.9282 35.27 12.9582L35.3501 13.0961C35.3533 13.1025 35.3573 13.1106 35.3604 13.1171C35.3635 13.1234 35.3675 13.1315 35.3706 13.1379L35.5379 13.531C35.5404 13.5385 35.5437 13.5464 35.5462 13.5538L35.562 13.6002C35.5715 13.6293 35.5742 13.6425 35.5841 13.6716L35.7983 14.5457C35.836 14.6569 35.82 14.8244 35.82 14.9587ZM39.7089 25.2L39.7154 24.8211C39.7039 24.7651 39.7115 24.7272 39.7094 24.672L39.5838 23.9272C39.5771 23.7574 39.5429 23.8122 39.5208 23.5241L39.4893 23.4C39.4559 23.3053 39.4692 23.2228 39.4559 23.1228C39.4263 22.9009 39.4152 23.1639 39.3953 22.9035C39.3915 22.8547 39.3997 22.7996 39.3932 22.7504C39.3691 22.5703 39.3836 22.7213 39.3544 22.6336C39.3154 22.5166 39.3461 22.4951 39.3304 22.378C39.303 22.1723 39.2767 22.4007 39.2682 22.1293C39.2643 22.0076 39.2851 21.9798 39.248 21.8699L39.2072 21.6C39.187 21.3379 39.1621 21.6136 39.1447 21.3515C39.1422 21.3132 39.1503 21.2266 39.1446 21.1964C39.1265 21.1016 39.1638 21.1363 39.0816 21.1035L38.8935 21.0414L38.7474 21.1451C38.7399 21.1478 41.0063 23.8344 40.9986 23.8369C40.9907 23.8394 38.7073 21.1572 38.6993 21.1597L38.4379 21.2422C38.4303 21.2449 38.4222 21.2478 38.4147 21.2503C35.1147 22.3709 30.5603 22.5906 29.1303 18.8477L29.1088 18.4965H40.7752C40.7752 18.2754 40.7572 17.9654 40.8162 17.7923C40.8458 17.7051 40.8401 17.6726 40.8391 17.5667L40.8382 15.579C40.8388 15.5136 40.8446 15.3965 40.8317 15.3373C40.8041 15.2108 40.7859 15.2809 40.7739 15.146C40.7624 15.0143 40.7967 14.8441 40.769 14.7166C40.7443 14.6031 40.7114 14.6235 40.7125 14.431C40.7137 14.2088 40.6717 14.2671 40.6518 14.1187L40.5392 13.4853C40.5235 13.4291 40.531 13.4311 40.5205 13.3796L40.3952 12.883C40.3934 12.8737 40.3927 12.8656 40.3906 12.8565C40.3887 12.8478 40.3868 12.8399 40.3845 12.8314L40.0741 11.9593C40.0709 11.953 40.0664 11.9454 40.0634 11.9389C40.0603 11.9324 40.0563 11.9245 40.0534 11.9178L39.8134 11.3793C39.7361 11.2265 39.6734 11.0761 39.5691 10.9384C39.538 10.8974 39.5467 10.9129 39.5196 10.8632L38.9669 10.0757C38.9634 10.0698 38.9597 10.0613 38.9562 10.0552L38.0782 9.15505C38.0687 9.1455 38.0239 9.09897 38.0167 9.09181L37.4089 8.63815C37.403 8.63457 37.3944 8.63087 37.3884 8.62741L36.9459 8.35154C36.9404 8.34772 36.9328 8.34247 36.9273 8.33889L36.8242 8.2858C36.8177 8.28257 36.8095 8.27876 36.803 8.27565L36.6773 8.21385C36.6709 8.21062 36.6628 8.20669 36.6564 8.20347L36.2768 8.02055C36.2691 8.01792 36.2605 8.01589 36.2525 8.01339L35.7372 7.80971C35.7308 7.80661 35.7231 7.80207 35.7166 7.79909L34.573 7.50305C34.4433 7.47728 34.5158 7.45867 34.3775 7.44828L34.0577 7.39244C33.9406 7.36762 33.8098 7.40473 33.6938 7.38003C33.5661 7.35307 33.6369 7.33481 33.5005 7.323L31.5878 7.32562C31.4343 7.34794 31.5418 7.33767 31.4923 7.35521L29.8217 7.71938C26.0717 8.98776 25.0592 11.1032 23.934 14.6482L23.9012 14.988C23.3929 18.6191 23.9835 21.4868 26.6459 24.1614C29.6798 26.5706 34.2777 26.899 37.93 25.7984L38.1573 25.744C38.3033 25.7051 38.4505 25.6607 38.5964 25.6199C38.604 25.6174 38.6121 25.6144 38.6196 25.6118C38.6271 25.6092 38.6352 25.606 38.6426 25.6035L39.2302 25.409C39.2377 25.4065 39.2458 25.4035 39.2535 25.401L39.5209 25.2933C39.6283 25.2501 39.6687 25.2984 39.7089 25.2Z" fill="#223232"/>
<path fill-rule="evenodd" clip-rule="evenodd" d="M78.8477 16.7275C78.7944 16.8806 78.8892 17.3317 78.8346 17.5214L78.7981 17.6096C78.7811 17.6697 78.7842 17.6853 78.7838 17.7505L78.558 18.8304C78.5554 18.8378 78.552 18.8457 78.5494 18.853L77.6405 20.5293L77.0697 21.0197C77.064 21.0234 77.0562 21.0281 77.0503 21.0315L76.9445 21.0821C76.92 21.094 76.8857 21.1102 76.8626 21.1252L76.0258 21.4454L75.6819 21.4775C75.4595 21.5079 75.7222 21.5166 75.4619 21.539C74.9839 21.5803 74.9806 21.4757 74.7093 21.4747L73.7457 21.2178C73.4319 21.0617 73.1698 20.8538 72.8732 20.5605L72.672 20.3562C72.6682 20.3507 72.6635 20.3427 72.6599 20.3371L72.158 19.5304C72.1388 19.478 72.141 19.4636 72.1226 19.4101L71.9879 19.0779C71.9854 19.0705 71.9822 19.0625 71.9796 19.0551L71.9631 19.0094C71.9512 18.974 71.9454 18.9501 71.9334 18.9147L71.9004 18.8233C71.8883 18.7878 71.8823 18.764 71.8703 18.7289L71.6974 17.9379C71.6776 17.6792 71.6682 17.939 71.6362 17.7192C71.6244 17.6385 71.6427 17.5224 71.6357 17.4402C71.6143 17.1841 71.6058 17.4415 71.5734 17.2226C71.5407 17.0014 71.5375 15.717 71.6128 15.4957C71.6362 15.4269 71.6331 15.4571 71.637 15.3643C71.6591 14.8278 71.6287 15.1904 71.69 14.8892C71.7003 14.8389 71.6936 14.8201 71.6986 14.7735C71.7139 14.6268 71.6811 14.8347 71.7047 14.7176C71.7234 14.6253 71.7204 14.6728 71.7287 14.6483C71.7725 14.5191 71.7399 14.4971 71.8553 14.1528C71.8578 14.1454 71.8615 14.1378 71.8638 14.1302C71.8662 14.1223 71.8691 14.1145 71.8712 14.1064L72.3658 12.951C72.369 12.9446 72.3726 12.9362 72.3758 12.9299L72.49 12.7637C72.5155 12.7244 72.5021 12.7385 72.5233 12.7036L72.9517 12.1964C72.9581 12.19 72.9763 12.1714 72.9827 12.1649L73.3491 11.8758C73.3548 11.8723 73.3629 11.8678 73.3689 11.8644L73.7231 11.6562C73.7294 11.6531 73.7375 11.6491 73.7443 11.6461C73.751 11.6432 73.7591 11.6396 73.7661 11.6368L73.9783 11.5675C73.9859 11.565 73.994 11.5619 74.0016 11.5594C74.0309 11.5499 74.0445 11.5471 74.0737 11.5377L74.3076 11.4588C74.3148 11.4563 74.3226 11.4525 74.3299 11.4499C74.3373 11.4474 74.3449 11.4435 74.3525 11.4412C74.3602 11.4388 74.3677 11.4352 74.3757 11.4332C74.4868 11.4049 74.5962 11.4287 74.708 11.3896C74.7153 11.3871 74.7225 11.3826 74.7299 11.3802C74.9201 11.3169 75.6266 11.3435 75.7963 11.399C75.9036 11.4341 75.9869 11.3941 76.3158 11.5055L76.5053 11.5663C76.5124 11.5691 76.5206 11.5724 76.5274 11.5754L76.9255 11.7712C76.931 11.7749 76.9388 11.7797 76.9448 11.7831L77.1134 11.8644C77.2152 11.9223 77.3493 12.0726 77.3642 12.0818L77.4051 12.1034C77.549 12.1844 77.6525 12.3168 77.7406 12.4542C77.7442 12.4599 77.7489 12.4679 77.7527 12.4733C77.7942 12.5313 77.8314 12.5446 77.873 12.6025L77.942 12.7204C77.943 12.7218 77.9717 12.7557 77.9838 12.7722C77.9876 12.7774 77.9935 12.7845 77.9973 12.7898L78.1796 13.075C78.1838 13.0835 78.1956 13.1084 78.1998 13.117C78.2117 13.1409 78.2296 13.1764 78.2414 13.1999C78.2446 13.2063 78.2592 13.235 78.2623 13.2413L78.3254 13.3652C78.3286 13.3715 78.3328 13.3794 78.336 13.3857L78.3682 13.447C78.3712 13.4536 78.375 13.4616 78.3779 13.4683L78.6453 14.259C78.6474 14.2674 78.6494 14.2754 78.6513 14.284L78.7005 14.4836C78.7334 14.59 78.7096 14.6434 78.7444 14.7505C78.7839 14.8722 78.7714 15.0817 78.8164 15.2069C78.8341 15.256 78.8238 15.1495 78.8463 15.3014C78.8513 15.3352 78.8493 15.4164 78.8489 15.454C78.8472 15.6238 78.8178 15.8416 78.854 16.0076C78.8858 16.1534 78.86 16.0132 78.8887 16.0974C78.9276 16.2117 78.9138 16.3827 78.9131 16.5129C78.9116 16.7884 78.8789 16.6383 78.8477 16.7275ZM81.7932 9.55863C81.6623 9.49682 77.7539 10.1281 77.1685 10.165C77.2546 9.71327 77.4353 9.15759 77.5511 8.7105C77.6261 8.42174 77.9071 7.4871 77.907 7.26206C77.747 7.26206 77.6343 7.22185 77.4907 7.17735L77.2808 7.13678C77.0267 7.11076 77.2737 7.10969 77.0569 7.07914C77.0151 7.07318 76.9797 7.07843 76.938 7.07258C76.7277 7.04287 76.9513 7.04454 76.7451 7.01531C76.7081 7.01006 76.6298 7.01304 76.5898 7.01376C76.481 7.01579 76.4506 7.02211 76.3607 6.99216C76.0729 6.89635 74.9595 6.95314 74.5198 6.95159C74.0812 6.95016 74.2092 6.99001 74.0479 7.01221C73.9736 7.02235 73.8745 7.00517 73.8002 7.01531C73.577 7.04597 73.8416 7.05612 73.5791 7.07592C73.4619 7.08463 73.4612 7.06172 73.35 7.0974L72.5525 7.30132C72.545 7.30394 72.5369 7.30693 72.5293 7.30943L72.2454 7.40083C72.2378 7.40334 72.2297 7.40632 72.2221 7.40895L72.011 7.47923C72.0035 7.48185 71.9954 7.48495 71.9879 7.48746C71.9804 7.49009 71.9723 7.49307 71.9647 7.49557C71.934 7.50536 71.9209 7.50727 71.8918 7.51657L71.4662 7.68494C71.4575 7.68911 71.4337 7.702 71.4251 7.70641C71.4188 7.70963 71.4107 7.71381 71.4044 7.71691L71.1538 7.84136C71.1537 7.84136 71.1121 7.86201 71.112 7.86201C71.1056 7.86523 71.0975 7.86917 71.0911 7.87239L70.018 8.51744C70.0127 8.52125 70.0055 8.52698 70.0001 8.53068L69.711 8.74104C69.6986 8.74832 69.682 8.75512 69.6696 8.76228C69.5436 8.83519 69.4603 8.97885 69.3346 9.05152L68.765 9.57402C68.7497 9.58882 68.7178 9.61829 68.7168 9.61936C68.7045 9.63165 68.6668 9.67234 68.6578 9.68523L67.7574 10.9044C67.753 10.9129 67.7407 10.9374 67.7359 10.9454C67.7324 10.9512 67.7277 10.959 67.7241 10.9646L67.4532 11.4414C67.4442 11.4589 67.434 11.4792 67.4218 11.5034C67.4186 11.5098 67.4146 11.5178 67.4113 11.5241C67.4082 11.5304 67.4041 11.5385 67.4008 11.5448L67.2232 11.8965C67.2226 11.8977 67.2028 11.9367 67.2022 11.9379C67.1899 11.9623 67.1728 11.9962 67.1604 12.0206L67.1286 12.0823C67.1253 12.0885 67.121 12.0963 67.1178 12.1025L66.8605 12.7791C66.8581 12.7867 66.8555 12.795 66.8529 12.8026C66.8504 12.81 66.8474 12.818 66.8447 12.8255L66.6312 13.4521C66.6168 13.5061 66.623 13.5092 66.6131 13.5583L66.5939 13.6325C66.5277 13.8416 66.5287 14.0701 66.4693 14.254C66.467 14.2613 66.4624 14.2685 66.46 14.2757L66.4283 14.4305C66.4192 14.654 66.3618 14.6875 66.3659 14.8966L66.3598 15.0765C66.3372 15.1804 66.3009 15.1963 66.3014 15.3602C66.3021 15.6169 66.3552 16.0596 66.2895 16.2807L66.2601 16.348C66.2176 16.4771 66.2738 16.477 66.2967 16.5783C66.3651 16.8804 66.2435 17.3186 66.3095 17.6214C66.3371 17.7481 66.3557 17.6774 66.3671 17.8126C66.374 17.8948 66.3558 18.0109 66.3675 18.0916C66.4005 18.3193 66.3959 18.0525 66.4266 18.2813C66.4422 18.3985 66.4116 18.42 66.4506 18.5369C66.4791 18.6229 66.4545 18.4787 66.4849 18.6271L66.4978 18.8625C66.4996 18.8712 66.5023 18.8788 66.5046 18.887L66.5942 19.2016C66.5966 19.2094 66.5998 19.217 66.602 19.2249C66.6043 19.2333 66.6063 19.2413 66.6084 19.2497L66.828 20.0254C66.8305 20.033 66.8338 20.0408 66.8364 20.0482C66.8389 20.0556 66.8422 20.0636 66.8447 20.071L66.9713 20.3802C66.9921 20.4345 66.9828 20.4227 66.9998 20.4762L67.024 20.5453C67.0269 20.552 67.0309 20.5599 67.034 20.5664L67.2231 21C67.2264 21.0064 67.2303 21.0144 67.2336 21.0207L67.3278 21.2068C67.332 21.2153 67.3443 21.2398 67.3486 21.2482L67.5367 21.6206C67.54 21.627 67.5441 21.635 67.5472 21.6414C67.5505 21.6477 67.5544 21.6557 67.5577 21.662L67.5987 21.7457C67.7166 21.9809 67.675 21.8308 67.7574 21.992L67.8432 22.1553C67.8438 22.1563 67.8976 22.2226 67.8989 22.2244L68.0483 22.449C68.0518 22.4548 68.0557 22.4633 68.0592 22.4691L68.2136 22.6577C68.2176 22.6631 68.2222 22.6711 68.2258 22.6767L68.4202 22.9188C68.5519 23.0447 68.622 23.1811 68.7807 23.3379L69.1885 23.7413C69.2114 23.7641 69.2284 23.7806 69.2511 23.8035L69.3791 23.9251C69.6199 24.0907 69.6086 24.1215 69.7737 24.2174C69.7796 24.2209 69.788 24.2248 69.7938 24.2285C69.7996 24.2321 69.8077 24.2366 69.8131 24.2404C69.8207 24.2457 69.8407 24.2625 69.8476 24.2685L70.9866 24.9724C70.9929 24.9756 71.001 24.9795 71.0074 24.9827L71.6978 25.2926C71.7047 25.2955 71.7127 25.2994 71.7193 25.3025C71.7258 25.3055 71.7335 25.3099 71.7399 25.313L72.3644 25.533C72.3719 25.5355 72.3798 25.5388 72.3873 25.5414L73.1223 25.7451C73.1878 25.7618 73.1698 25.7529 73.2341 25.7586C73.299 25.7643 73.2797 25.7549 73.3458 25.7722C73.3537 25.7743 73.3612 25.778 73.3688 25.7804L73.789 25.8612C73.8975 25.8972 74.0527 25.8815 74.1767 25.881L74.4163 25.9232C74.5271 25.9602 75.9759 25.9684 76.1061 25.9318L76.1725 25.9042C76.1799 25.9019 76.1874 25.8979 76.1952 25.8958C76.2769 25.8727 76.3765 25.8819 76.4651 25.8836C76.5717 25.8855 76.6061 25.8902 76.6933 25.8612L77.0916 25.7897C77.3076 25.7166 77.5164 25.7378 77.7429 25.6583L78.0869 25.5642C78.0955 25.5623 78.1036 25.5604 78.1121 25.5582L78.369 25.471C78.3765 25.4684 78.3846 25.4654 78.3922 25.4629C78.428 25.4511 78.4521 25.4453 78.488 25.4335C78.4955 25.431 78.5036 25.428 78.5112 25.4255C78.5187 25.423 78.5267 25.4198 78.5342 25.4172L78.9302 25.2505C78.9367 25.2474 78.9445 25.2431 78.951 25.2401L78.995 25.2215C79.0024 25.2188 79.0107 25.2161 79.0183 25.2135C79.026 25.211 79.0346 25.2088 79.0424 25.2065L80.682 24.2841L81.1056 23.9275C81.2181 23.8139 81.3528 23.7481 81.4665 23.6329C81.5051 23.5937 81.5137 23.586 81.5448 23.5552L81.8428 23.1983C81.9219 23.0975 82.0601 23.0122 82.1383 22.9009L82.5885 22.2603C82.5921 22.2546 82.5964 22.2465 82.6001 22.2407L83.207 21.1655C83.2103 21.1593 83.2144 21.1513 83.2177 21.145C83.2209 21.1388 83.2251 21.1308 83.2284 21.1246L83.5669 20.2803C83.5694 20.2727 83.5724 20.2648 83.5749 20.2573L83.63 20.0944C83.6326 20.087 83.6359 20.0793 83.6385 20.0719C83.6419 20.0623 83.6526 20.0364 83.6556 20.0266L83.9778 18.7627C83.9965 18.6944 83.989 18.6914 83.991 18.6207C83.9971 18.4055 84.0436 18.4212 84.0521 18.1535C84.054 18.0938 84.0515 18.0982 84.0669 18.044C84.0691 18.0364 84.073 18.029 84.0756 18.0216L84.0946 17.9784C84.0972 17.971 84.1011 17.9636 84.1033 17.9559C84.1263 17.8758 84.1178 17.7771 84.1167 17.6899C84.1115 17.2645 84.1537 17.3851 84.1777 17.2226C84.2084 17.015 84.1935 15.6449 84.1573 15.5387C84.1287 15.4545 84.1544 15.5948 84.1227 15.449C84.0884 15.2913 84.1385 15.0887 84.115 14.929C84.0826 14.7097 84.0728 14.968 84.0529 14.7111C84.0469 14.6342 84.0638 14.5452 84.0475 14.4682C84.0166 14.3225 84.0393 14.4588 84.0131 14.3781L83.7253 13.1422C83.7228 13.1347 83.7197 13.1267 83.7171 13.1193L83.7003 13.0738C83.6978 13.0663 83.6948 13.0583 83.6923 13.0508L83.6544 12.933C83.6511 12.9236 83.6409 12.8971 83.6376 12.8876C83.627 12.8568 83.6206 12.8331 83.6075 12.7933C83.605 12.7857 83.6024 12.7774 83.5999 12.7698C83.5974 12.7623 83.5942 12.7543 83.5917 12.7469L81.95 9.80932C81.9462 9.80371 81.8994 9.75097 81.8916 9.74298C81.8871 9.73844 81.8806 9.73188 81.876 9.72735L81.7932 9.55863Z" fill="#223232"/>
<path fill-rule="evenodd" clip-rule="evenodd" d="M56.3929 0.869012C56.1665 0.959458 56.3301 18.8848 56.3301 20.6379C56.3301 20.868 56.3092 21.1916 56.3711 21.3733C56.4023 21.4652 56.3947 21.5196 56.3935 21.6305C56.3926 21.7136 56.3914 21.798 56.3911 21.8811C56.391 21.9097 56.3906 21.9762 56.3944 22.002C56.4167 22.1525 56.4568 22.0923 56.4556 22.3138C56.4544 22.538 56.4989 22.5226 56.5183 22.7794L56.9365 24.1035C56.9396 24.1098 56.9437 24.1178 56.947 24.1241C56.9589 24.1478 56.9695 24.1689 56.9783 24.1862L57.7884 25.3088C57.8291 25.35 57.8354 25.3612 57.8659 25.3871L57.9817 25.4589C57.9877 25.4623 57.996 25.4663 58.0019 25.4698C58.0076 25.4734 58.0157 25.4779 58.0212 25.4818L58.7553 25.9966C58.781 26.0092 58.7999 26.0186 58.8181 26.0275L59.1109 26.1724C59.1286 26.1811 59.1496 26.1915 59.1736 26.2034L59.2153 26.2243C59.2217 26.2274 59.2297 26.2316 59.236 26.2347C59.2424 26.2379 59.2504 26.2421 59.2568 26.2453L59.9841 26.5185C59.9916 26.5212 59.9995 26.5245 60.007 26.527C60.0143 26.5295 60.0222 26.5332 60.0297 26.5356C60.0371 26.5381 60.0448 26.5416 60.0526 26.544L60.2355 26.5802C60.2436 26.5824 60.2513 26.5856 60.259 26.5879L60.6304 26.6859C60.7089 26.7016 60.685 26.6889 60.7606 26.7123C60.8497 26.74 60.7044 26.7155 60.8536 26.7444C60.9042 26.7543 60.9236 26.748 60.9705 26.7529C61.2299 26.7794 60.9738 26.7822 61.1927 26.8122C61.2671 26.8223 61.3661 26.8053 61.4404 26.8154C61.6631 26.846 61.3998 26.8555 61.6605 26.877C61.7359 26.8832 61.8382 26.8685 61.9136 26.8747C62.1564 26.8948 61.8967 26.9443 62.6663 26.9368C62.8336 26.9352 62.8524 26.9655 62.985 26.9938C62.9956 26.9961 63.0062 26.9981 63.0171 27H63.6687L63.6999 26.6275C63.7024 26.6202 63.7069 26.613 63.7093 26.6058L63.7326 26.4425C63.7592 26.1878 63.775 26.4436 63.7942 26.1932L63.8351 25.9233C63.8763 25.7989 63.8369 25.7369 63.8702 25.6166L63.8882 25.5724C63.8908 25.5652 63.8954 25.5581 63.8978 25.5509C63.9002 25.5433 63.9042 25.5361 63.9063 25.5282C63.9327 25.4327 63.9064 25.3397 63.9329 25.2442C63.9898 25.0387 63.9822 24.9151 64.0041 24.8492L64.045 24.5792C64.065 24.3187 64.0878 24.5915 64.1078 24.331L64.1487 24.0611C64.1928 23.9284 64.1689 23.8189 64.2111 23.6885C64.2136 23.6809 64.2173 23.6736 64.2195 23.6657C64.2389 23.5932 64.2271 23.5946 64.2344 23.5253C64.2611 23.2706 64.2769 23.5263 64.2959 23.2759C64.3161 23.0124 64.3586 22.9645 64.3586 22.7172C63.9119 22.7172 63.9654 22.6977 63.6407 22.652L63.4982 22.6067C63.4162 22.5854 63.379 22.6009 63.2995 22.5861L62.999 22.48C62.8891 22.4261 62.7695 22.3994 62.6786 22.3315C62.5478 22.2336 62.4423 22.2217 62.3197 22.097L61.8701 21.5799L61.6699 21.0333C61.6517 20.9524 61.6641 20.9566 61.6386 20.8779C61.59 20.7273 61.6257 20.5795 61.5926 20.4269C61.5504 20.2315 61.5357 20.2237 61.5361 19.9552V0L56.3929 0.869012Z" fill="#223232"/>
<path fill-rule="evenodd" clip-rule="evenodd" d="M45.1028 0.869012C44.8764 0.959458 45.0401 18.8848 45.0401 20.6379C45.0401 20.868 45.0192 21.1916 45.081 21.3733C45.1494 21.5739 45.0698 21.9174 45.1342 22.0965C45.1537 22.1509 45.1419 22.0339 45.164 22.1913C45.1852 22.3428 45.1608 22.4161 45.2064 22.5527C45.2467 22.6732 45.2301 22.808 45.268 22.9262C45.2824 22.9705 45.2751 22.9411 45.2872 23.0003L45.6146 24.0418C45.6178 24.0481 45.622 24.056 45.6253 24.0623L45.6464 24.1035C45.6497 24.1098 45.6536 24.1178 45.6569 24.1241C45.669 24.1478 45.6794 24.1689 45.6882 24.1862L46.0086 24.7071C46.0124 24.7126 46.0174 24.7203 46.021 24.7259L46.0909 24.843C46.1327 24.896 46.1693 24.9156 46.2175 24.9661C46.2182 24.9668 46.2721 25.0342 46.2728 25.0354C46.3022 25.0817 46.2869 25.07 46.3163 25.1164L47.9461 26.2347C47.9523 26.2379 47.9604 26.2421 47.9667 26.2453C47.9752 26.2496 47.9991 26.2625 48.0078 26.2667L48.7626 26.544C48.7704 26.5463 48.7783 26.5492 48.7865 26.5514C48.7949 26.5535 48.803 26.5554 48.8118 26.5573L49.1963 26.6423C49.2044 26.6444 49.2121 26.6476 49.22 26.65L49.6804 26.7529C49.9399 26.7794 49.6838 26.7822 49.9028 26.8122C49.9771 26.8223 50.076 26.8053 50.1504 26.8154C50.373 26.846 50.1098 26.8555 50.3704 26.877C50.4459 26.8832 50.5481 26.8685 50.6236 26.8747C50.8663 26.8948 50.6066 26.9443 51.3762 26.9368C51.56 26.935 51.6223 26.9894 51.7847 27H52.3536H52.3787L52.4099 26.6275C52.4125 26.6202 52.4169 26.613 52.4193 26.6058L52.4425 26.4425C52.4693 26.1878 52.4851 26.4436 52.5041 26.1932L52.545 25.9233C52.5863 25.7989 52.5468 25.7369 52.5801 25.6166L52.5982 25.5724C52.6007 25.5652 52.6053 25.5581 52.6077 25.5509C52.6102 25.5433 52.6141 25.5361 52.6162 25.5282C52.6428 25.4327 52.6164 25.3397 52.6429 25.2442C52.6998 25.0387 52.6922 24.9151 52.7142 24.8492L52.755 24.5792C52.7749 24.3187 52.7978 24.5915 52.8177 24.331L52.8586 24.0611C52.9006 23.9351 52.8623 23.8536 52.9023 23.7319L52.9443 23.5253C52.971 23.2706 52.9868 23.5263 53.006 23.2759C53.0097 23.2271 53.0015 23.172 53.008 23.1228C53.0322 22.9417 53.0164 23.0958 53.0468 23.006C53.0806 22.9063 53.0687 22.8356 53.0687 22.7172C52.6219 22.7172 52.6753 22.6977 52.3506 22.652L51.9379 22.5638C51.9305 22.5613 51.9228 22.5575 51.9155 22.5549L51.3887 22.3315C51.3456 22.2992 51.3779 22.3189 51.3338 22.2927C51.2081 22.2179 51.1422 22.2114 51.0297 22.097C51.0091 22.0761 50.9879 22.0549 50.9674 22.0345L50.6693 21.7397C50.6332 21.695 50.6593 21.7309 50.6318 21.6838C50.6305 21.6815 50.602 21.6245 50.6006 21.6216L50.474 21.3125C50.4665 21.2904 50.4648 21.2888 50.4572 21.2669C50.4497 21.2453 50.4441 21.2266 50.4342 21.1967L50.3109 20.5117C50.3097 20.4784 50.3096 20.4594 50.3026 20.4269C50.2603 20.2315 50.2456 20.2237 50.2461 19.9552V0L45.226 0.804579C45.0351 0.821881 45.1408 0.775942 45.1028 0.869012Z" fill="#223232"/>
<path fill-rule="evenodd" clip-rule="evenodd" d="M77.1685 10.165L83.301 9.31032L84.9945 2.91724L78.8476 3.78613L77.1685 10.165Z" fill="#6F53F8"/>
</svg>
