<svg width="73" height="23" viewBox="0 0 73 23" fill="none" xmlns="http://www.w3.org/2000/svg">
<path fill-rule="evenodd" clip-rule="evenodd" d="M0.00488281 21.784H4.6533V13.5357H12.2405V21.784H16.8889V1.37476H12.2405V9.62303H4.6533V1.37476H0.00488281V21.784Z" fill="white"/>
<path fill-rule="evenodd" clip-rule="evenodd" d="M30.5136 12.7425H24.7966L24.8383 12.4401C24.8929 12.2373 24.9282 12.0075 24.9971 11.8042C25.0326 11.7184 25.0757 11.628 25.1055 11.5413C25.1503 11.4106 25.2083 11.2982 25.2676 11.1729C25.2713 11.1657 25.2818 11.145 25.2859 11.1382L25.8304 10.4873C25.8708 10.4621 25.8598 10.4758 25.9 10.4506L26.4708 10.09C26.4762 10.0873 26.4831 10.0839 26.4885 10.0812L26.5943 10.0273C26.6001 10.0247 26.6069 10.0214 26.6127 10.019L26.6516 10.0045C26.658 10.0023 26.6653 10.0005 26.672 9.99834L27.046 9.89263C27.1472 9.872 27.2442 9.90168 27.3427 9.86895L27.655 9.83439C27.7582 9.8349 27.9067 9.82514 28.0034 9.83347C28.047 9.83723 28.0334 9.8349 28.0714 9.84557L28.323 9.88724C28.4494 9.89659 28.621 9.95829 28.7451 9.99834L29.321 10.3009C29.326 10.3039 29.3333 10.3071 29.3385 10.3101C29.4487 10.3738 29.5317 10.4741 29.6404 10.54L29.9987 10.9785C30.0074 10.992 30.0259 11.0128 30.045 11.0384L30.1133 11.1559C30.116 11.1613 30.1194 11.1683 30.1221 11.1737C30.1247 11.1791 30.1281 11.186 30.1308 11.1914L30.2732 11.5263C30.2754 11.5328 30.2782 11.5395 30.2803 11.5458L30.2938 11.5853C30.3019 11.6101 30.3042 11.6213 30.3126 11.6461L30.4951 12.3907C30.5272 12.4855 30.5136 12.6282 30.5136 12.7425ZM33.8263 21.4666L33.8319 21.1439C33.8221 21.0961 33.8286 21.0639 33.8267 21.0168L33.7198 20.3823C33.7141 20.2377 33.6849 20.2844 33.6661 20.039L33.6393 19.9333C33.6108 19.8526 33.6221 19.7823 33.6108 19.6972C33.5856 19.5081 33.5761 19.7321 33.5592 19.5103C33.556 19.4688 33.563 19.4218 33.5574 19.3799C33.5369 19.2265 33.5492 19.3551 33.5243 19.2804C33.4912 19.1807 33.5173 19.1624 33.5039 19.0627C33.4806 18.8875 33.4582 19.082 33.4509 18.8508C33.4476 18.7471 33.4653 18.7234 33.4338 18.6298L33.3989 18.3999C33.3818 18.1767 33.3605 18.4115 33.3457 18.1883C33.3436 18.1556 33.3505 18.0818 33.3456 18.0561C33.3302 17.9753 33.362 18.0049 33.292 17.977L33.1318 17.9241L33.0073 18.0124C33.0009 18.0148 34.9315 20.3033 34.925 20.3054C34.9183 20.3075 32.9731 18.0227 32.9663 18.0248L32.7436 18.0952C32.7372 18.0974 32.7303 18.0999 32.7239 18.1021C29.9127 19.0566 26.0331 19.2437 24.8149 16.0554L24.7966 15.7562H34.7346C34.7346 15.5679 34.7193 15.3038 34.7695 15.1563C34.7948 15.082 34.79 15.0544 34.7891 14.9641L34.7883 13.271C34.7889 13.2153 34.7938 13.1154 34.7828 13.065C34.7593 12.9573 34.7438 13.0169 34.7336 12.9021C34.7237 12.7899 34.753 12.6449 34.7294 12.5363C34.7083 12.4396 34.6803 12.457 34.6812 12.293C34.6822 12.1037 34.6465 12.1534 34.6295 12.0269L34.5336 11.4874C34.5203 11.4395 34.5266 11.4413 34.5177 11.3974L34.411 10.9743C34.4094 10.9664 34.4088 10.9595 34.4071 10.9518C34.4054 10.9443 34.4038 10.9376 34.4018 10.9304L34.1374 10.1875C34.1347 10.1821 34.1309 10.1756 34.1283 10.1701C34.1256 10.1645 34.1222 10.1578 34.1198 10.1521L33.9154 9.69341C33.8495 9.5632 33.7961 9.43513 33.7073 9.31784C33.6808 9.28287 33.6882 9.29608 33.6651 9.2538L33.1942 8.58295C33.1912 8.57787 33.1882 8.57065 33.1852 8.56547L32.4372 7.79867C32.4291 7.79054 32.391 7.7509 32.3848 7.7448L31.8671 7.35835C31.862 7.3553 31.8547 7.35215 31.8496 7.3492L31.4726 7.1142C31.468 7.11095 31.4615 7.10648 31.4568 7.10343L31.369 7.0582C31.3635 7.05545 31.3565 7.0522 31.3509 7.04956L31.2439 6.99691C31.2385 6.99416 31.2315 6.99081 31.226 6.98807L30.9027 6.83225C30.8961 6.83001 30.8888 6.82828 30.882 6.82615L30.443 6.65264C30.4376 6.65 30.431 6.64614 30.4255 6.6436L29.4513 6.39142C29.3408 6.36946 29.4025 6.35361 29.2847 6.34476L29.0123 6.29719C28.9126 6.27605 28.8012 6.30766 28.7023 6.28662C28.5936 6.26365 28.6539 6.2481 28.5377 6.23804L26.9083 6.24027C26.7776 6.25928 26.8692 6.25054 26.827 6.26548L25.4039 6.5757C22.2095 7.65617 21.347 9.45821 20.3885 12.478L20.3605 12.7675C19.9275 15.8606 20.4306 18.3035 22.6986 20.5819C25.283 22.6342 29.1998 22.9139 32.311 21.9763L32.5046 21.93C32.629 21.8968 32.7544 21.859 32.8787 21.8243C32.8852 21.8221 32.892 21.8196 32.8984 21.8173C32.9048 21.8152 32.9117 21.8125 32.918 21.8103L33.4186 21.6447C33.4249 21.6425 33.4318 21.64 33.4384 21.6378L33.6662 21.5461C33.7577 21.5093 33.7921 21.5504 33.8263 21.4666Z" fill="white"/>
<path fill-rule="evenodd" clip-rule="evenodd" d="M67.1666 14.2494C67.1212 14.3798 67.2019 14.764 67.1554 14.9256L67.1244 15.0007C67.1099 15.052 67.1125 15.0653 67.1122 15.1208L66.9198 16.0408C66.9176 16.0471 66.9148 16.0538 66.9125 16.06L66.1382 17.488L65.652 17.9057C65.6472 17.9089 65.6405 17.9128 65.6355 17.9158L65.5454 17.9589C65.5245 17.9689 65.4953 17.9828 65.4756 17.9956L64.7628 18.2683L64.4699 18.2956C64.2804 18.3215 64.5042 18.329 64.2824 18.3481C63.8753 18.3832 63.8724 18.2941 63.6413 18.2933L62.8205 18.0744C62.5531 17.9415 62.3299 17.7643 62.0772 17.5145L61.9058 17.3405C61.9026 17.3358 61.8986 17.329 61.8955 17.3242L61.4679 16.637C61.4516 16.5924 61.4535 16.5801 61.4379 16.5345L61.3231 16.2516C61.321 16.2453 61.3182 16.2385 61.316 16.2321L61.302 16.1932C61.2918 16.163 61.2869 16.1427 61.2767 16.1125L61.2485 16.0347C61.2383 16.0045 61.2331 15.9841 61.2229 15.9543L61.0756 15.2805C61.0587 15.0601 61.0507 15.2814 61.0235 15.0941C61.0134 15.0254 61.0291 14.9265 61.0231 14.8565C61.0048 14.6383 60.9976 14.8576 60.97 14.6711C60.9422 14.4827 60.9394 13.3886 61.0036 13.2C61.0235 13.1415 61.0208 13.1672 61.0241 13.0881C61.043 12.6311 61.0171 12.94 61.0693 12.6834C61.078 12.6406 61.0724 12.6245 61.0766 12.5849C61.0897 12.4599 61.0617 12.637 61.0818 12.5372C61.0978 12.4586 61.0952 12.4991 61.1023 12.4781C61.1396 12.3682 61.1118 12.3494 61.2101 12.0561C61.2123 12.0498 61.2154 12.0433 61.2173 12.0368C61.2194 12.0301 61.2218 12.0235 61.2237 12.0166L61.645 11.0324C61.6477 11.0269 61.6508 11.0198 61.6536 11.0144L61.7508 10.8728C61.7725 10.8393 61.7611 10.8513 61.7792 10.8216L62.1441 10.3896C62.1496 10.3841 62.1651 10.3682 62.1705 10.3627L62.4827 10.1165C62.4875 10.1134 62.4944 10.1097 62.4995 10.1067L62.8012 9.92934C62.8066 9.92669 62.8135 9.92334 62.8193 9.9208C62.825 9.91826 62.8319 9.91521 62.8378 9.91287L63.0186 9.85381C63.0251 9.85168 63.032 9.84904 63.0384 9.8469C63.0634 9.83877 63.075 9.83643 63.0999 9.8284L63.2991 9.76122C63.3053 9.75908 63.3119 9.75583 63.3181 9.75359C63.3244 9.75146 63.3309 9.74821 63.3373 9.74617C63.3439 9.74414 63.3503 9.74109 63.3572 9.73936C63.4518 9.71527 63.5449 9.7356 63.6402 9.70226C63.6464 9.70013 63.6526 9.69627 63.6588 9.69423C63.8209 9.64036 64.4227 9.66303 64.5672 9.71029C64.6587 9.74018 64.7296 9.70613 65.0098 9.80096L65.1712 9.8528C65.1773 9.85514 65.1842 9.85798 65.1901 9.86052L65.5292 10.0273C65.5339 10.0305 65.5406 10.0345 65.5456 10.0375L65.6893 10.1067C65.776 10.156 65.8902 10.2841 65.9029 10.2919L65.9377 10.3103C66.0603 10.3793 66.1485 10.4921 66.2235 10.6091C66.2266 10.614 66.2306 10.6208 66.2339 10.6254C66.2692 10.6748 66.3008 10.6862 66.3363 10.7355L66.3951 10.8359C66.396 10.8371 66.4204 10.866 66.4307 10.88C66.434 10.8845 66.439 10.8905 66.4422 10.8951L66.5975 11.138C66.6011 11.1452 66.6111 11.1664 66.6147 11.1738C66.6248 11.1941 66.6401 11.2244 66.6502 11.2444C66.6528 11.2498 66.6653 11.2743 66.6679 11.2797L66.7217 11.3852C66.7244 11.3906 66.728 11.3973 66.7307 11.4027L66.7581 11.4549C66.7607 11.4605 66.764 11.4673 66.7664 11.473L66.9942 12.1466C66.996 12.1537 66.9977 12.1605 66.9993 12.1678L67.0412 12.3379C67.0692 12.4285 67.049 12.474 67.0786 12.5653C67.1123 12.6689 67.1016 12.8474 67.1399 12.954C67.155 12.9958 67.1463 12.9052 67.1654 13.0345C67.1697 13.0633 67.168 13.1325 67.1676 13.1645C67.1662 13.3092 67.1411 13.4947 67.172 13.6361C67.1991 13.7603 67.1771 13.6408 67.2015 13.7126C67.2347 13.81 67.2229 13.9556 67.2223 14.0665C67.2211 14.3012 67.1932 14.1734 67.1666 14.2494ZM69.6757 8.14254C69.5643 8.08989 66.2349 8.62769 65.7362 8.6591C65.8096 8.27427 65.9634 7.80092 66.0621 7.42006C66.126 7.17408 66.3653 6.37791 66.3652 6.18621C66.2289 6.18621 66.133 6.15196 66.0107 6.11404L65.8319 6.07949C65.6154 6.05733 65.8258 6.05641 65.6411 6.03039C65.6055 6.02531 65.5754 6.02978 65.5398 6.0248C65.3607 5.99949 65.5511 6.00091 65.3755 5.97601C65.344 5.97154 65.2773 5.97408 65.2432 5.97469C65.1505 5.97642 65.1247 5.98181 65.048 5.95629C64.8029 5.87467 63.8544 5.92306 63.4799 5.92173C63.1062 5.92051 63.2153 5.95446 63.0779 5.97337C63.0146 5.98201 62.9302 5.96737 62.8669 5.97601C62.6768 6.00213 62.9021 6.01077 62.6785 6.02765C62.5787 6.03507 62.5781 6.01555 62.4834 6.04594L61.804 6.21965C61.7977 6.22189 61.7908 6.22443 61.7843 6.22656L61.5424 6.30442C61.5359 6.30656 61.5291 6.3091 61.5226 6.31133L61.3427 6.3712C61.3364 6.37344 61.3295 6.37608 61.3231 6.37822C61.3167 6.38045 61.3098 6.38299 61.3033 6.38513C61.2772 6.39346 61.266 6.39509 61.2413 6.40302L60.8787 6.54644C60.8713 6.54999 60.8509 6.56097 60.8437 6.56473C60.8383 6.56748 60.8314 6.57103 60.826 6.57368L60.6125 6.67969C60.6124 6.67969 60.577 6.69727 60.5769 6.69727C60.5715 6.70002 60.5646 6.70337 60.5591 6.70612L59.645 7.2556C59.6405 7.25886 59.6344 7.26373 59.6298 7.26689L59.3835 7.44608C59.3729 7.45228 59.3588 7.45808 59.3482 7.46417C59.2409 7.52628 59.1699 7.64866 59.0629 7.71056L58.5777 8.15566C58.5646 8.16826 58.5374 8.19337 58.5366 8.19428C58.5261 8.20475 58.494 8.23941 58.4864 8.25039L57.7193 9.28898C57.7156 9.2962 57.7051 9.31703 57.701 9.32385C57.698 9.32883 57.694 9.33543 57.691 9.34021L57.4602 9.74638C57.4526 9.76132 57.4438 9.7786 57.4335 9.79923C57.4307 9.80462 57.4273 9.81143 57.4245 9.81682C57.4218 9.8222 57.4183 9.82912 57.4156 9.8345L57.2643 10.134C57.2638 10.1351 57.2469 10.1683 57.2464 10.1693C57.2359 10.1902 57.2213 10.219 57.2108 10.2398L57.1836 10.2923C57.1809 10.2976 57.1772 10.3043 57.1745 10.3096L56.9553 10.8859C56.9533 10.8924 56.951 10.8994 56.9488 10.9059C56.9467 10.9122 56.9441 10.919 56.9419 10.9254L56.76 11.4592C56.7477 11.5052 56.753 11.5079 56.7445 11.5496L56.7282 11.6129C56.6718 11.791 56.6726 11.9857 56.622 12.1423C56.6201 12.1485 56.6162 12.1546 56.6141 12.1608L56.5871 12.2926C56.5794 12.483 56.5305 12.5116 56.534 12.6897L56.5287 12.8429C56.5095 12.9315 56.4786 12.945 56.479 13.0847C56.4796 13.3033 56.5248 13.6804 56.4689 13.8687L56.4438 13.9261C56.4076 14.036 56.4555 14.0359 56.475 14.1222C56.5333 14.3796 56.4297 14.7529 56.4859 15.0108C56.5094 15.1187 56.5253 15.0586 56.535 15.1737C56.5409 15.2438 56.5254 15.3427 56.5353 15.4114C56.5635 15.6053 56.5596 15.378 56.5856 15.573C56.599 15.6728 56.5729 15.6911 56.6061 15.7907C56.6304 15.864 56.6095 15.7411 56.6354 15.8676L56.6463 16.0681C56.6479 16.0755 56.6502 16.0819 56.6521 16.0889L56.7284 16.357C56.7305 16.3636 56.7332 16.3701 56.7351 16.3768C56.737 16.3839 56.7388 16.3907 56.7405 16.3979L56.9276 17.0587C56.9297 17.0651 56.9325 17.0718 56.9348 17.0781C56.9369 17.0844 56.9397 17.0912 56.9419 17.0975L57.0497 17.3609C57.0674 17.4071 57.0595 17.3971 57.074 17.4427L57.0946 17.5016C57.0971 17.5073 57.1005 17.514 57.1031 17.5196L57.2642 17.8889C57.267 17.8943 57.2703 17.9011 57.2731 17.9065L57.3533 18.0651C57.3569 18.0723 57.3674 18.0931 57.3711 18.1004L57.5313 18.4176C57.5341 18.423 57.5376 18.4298 57.5403 18.4353C57.543 18.4407 57.5464 18.4475 57.5492 18.4529L57.5841 18.5241C57.6846 18.7244 57.6492 18.5966 57.7193 18.7339L57.7924 18.8731C57.7929 18.8739 57.8388 18.9304 57.8399 18.9319L57.9672 19.1232C57.9701 19.1282 57.9734 19.1354 57.9764 19.1404L58.108 19.301C58.1114 19.3056 58.1153 19.3125 58.1183 19.3172L58.2839 19.5235C58.3961 19.6307 58.4559 19.7469 58.591 19.8804L58.9384 20.2241C58.9579 20.2435 58.9724 20.2575 58.9917 20.2771L59.1008 20.3806C59.3059 20.5217 59.2963 20.5479 59.4369 20.6297C59.4419 20.6326 59.4491 20.636 59.454 20.6391C59.459 20.6422 59.4658 20.646 59.4705 20.6493C59.4769 20.6537 59.494 20.6681 59.4998 20.6732L60.4701 21.2728C60.4755 21.2755 60.4824 21.2789 60.4878 21.2816L61.076 21.5456C61.0818 21.548 61.0886 21.5514 61.0943 21.554C61.0998 21.5565 61.1064 21.5603 61.1118 21.5629L61.6438 21.7504C61.6502 21.7525 61.6569 21.7553 61.6633 21.7575L62.2895 21.931C62.3452 21.9452 62.3299 21.9377 62.3847 21.9425C62.4399 21.9474 62.4235 21.9393 62.4798 21.9541C62.4866 21.9559 62.4929 21.9591 62.4994 21.9611L62.8574 22.0299C62.9498 22.0606 63.082 22.0472 63.1876 22.0468L63.3917 22.0828C63.4861 22.1143 64.7203 22.1213 64.8312 22.0901L64.8877 22.0666C64.8941 22.0646 64.9004 22.0612 64.9071 22.0594C64.9767 22.0398 65.0615 22.0476 65.137 22.049C65.2278 22.0506 65.2571 22.0546 65.3314 22.0299L65.6707 21.969C65.8547 21.9067 66.0326 21.9248 66.2254 21.8571L66.5185 21.7769C66.5259 21.7753 66.5328 21.7737 66.54 21.7718L66.7588 21.6975C66.7652 21.6953 66.7721 21.6927 66.7786 21.6906C66.8091 21.6805 66.8296 21.6757 66.8602 21.6656C66.8666 21.6635 66.8735 21.6609 66.8799 21.6588C66.8863 21.6567 66.8932 21.6539 66.8996 21.6517L67.2369 21.5097C67.2424 21.507 67.2491 21.5034 67.2546 21.5008L67.2921 21.485C67.2984 21.4826 67.3055 21.4804 67.312 21.4782C67.3185 21.476 67.3258 21.4742 67.3325 21.4722L68.7292 20.6865L69.09 20.3827C69.1859 20.2859 69.3006 20.2299 69.3975 20.1317C69.4303 20.0984 69.4376 20.0918 69.4641 20.0655L69.718 19.7615C69.7854 19.6756 69.9031 19.603 69.9697 19.5082L70.3532 18.9625C70.3563 18.9576 70.36 18.9507 70.3631 18.9458L70.8801 18.0299C70.8829 18.0246 70.8864 18.0178 70.8892 18.0124C70.8919 18.0072 70.8955 18.0003 70.8983 17.9951L71.1866 17.2758C71.1888 17.2693 71.1914 17.2626 71.1935 17.2562L71.2405 17.1175C71.2426 17.1112 71.2455 17.1046 71.2476 17.0983C71.2505 17.0901 71.2597 17.0681 71.2622 17.0597L71.5367 15.983C71.5526 15.9249 71.5462 15.9223 71.548 15.8621C71.5531 15.6788 71.5928 15.6921 71.6 15.4641C71.6016 15.4132 71.5994 15.417 71.6126 15.3708C71.6144 15.3643 71.6178 15.358 71.62 15.3517L71.6362 15.3149C71.6384 15.3086 71.6418 15.3023 71.6436 15.2958C71.6632 15.2275 71.6559 15.1434 71.655 15.0691C71.6506 14.7068 71.6865 14.8095 71.707 14.6711C71.7332 14.4942 71.7204 13.3272 71.6896 13.2367C71.6653 13.165 71.6872 13.2845 71.6601 13.1603C71.6309 13.0259 71.6736 12.8533 71.6536 12.7173C71.6259 12.5305 71.6176 12.7506 71.6007 12.5317C71.5955 12.4662 71.6099 12.3903 71.5961 12.3248C71.5698 12.2007 71.5891 12.3167 71.5668 12.248L71.3216 11.1952C71.3194 11.1888 71.3169 11.182 71.3146 11.1757L71.3003 11.137C71.2982 11.1306 71.2956 11.1237 71.2935 11.1173L71.2612 11.017C71.2584 11.009 71.2497 10.9864 71.2469 10.9783C71.2379 10.9521 71.2324 10.9319 71.2212 10.898C71.2191 10.8915 71.2169 10.8845 71.2148 10.878C71.2126 10.8716 71.21 10.8648 71.2078 10.8585L69.8093 8.3561C69.8061 8.35132 69.7662 8.30639 69.7595 8.29958C69.7557 8.29572 69.7502 8.29013 69.7463 8.28627L69.6757 8.14254Z" fill="white"/>
<path fill-rule="evenodd" clip-rule="evenodd" d="M48.0387 0.74027C47.8458 0.817316 47.9852 16.087 47.9852 17.5805C47.9852 17.7764 47.9674 18.0521 48.0201 18.2069C48.0467 18.2852 48.0403 18.3315 48.0392 18.4259C48.0384 18.4968 48.0374 18.5686 48.0372 18.6395C48.0371 18.6638 48.0368 18.7205 48.04 18.7425C48.059 18.8706 48.0932 18.8194 48.0921 19.0081C48.0911 19.199 48.129 19.1859 48.1455 19.4047L48.5018 20.5326C48.5044 20.538 48.5079 20.5448 48.5107 20.5502C48.5209 20.5703 48.5299 20.5883 48.5374 20.603L49.2274 21.5593C49.2622 21.5945 49.2675 21.604 49.2935 21.6261L49.3921 21.6872C49.3972 21.6901 49.4043 21.6935 49.4093 21.6965C49.4142 21.6996 49.421 21.7034 49.4258 21.7067L50.0511 22.1453C50.073 22.156 50.0891 22.164 50.1046 22.1716L50.354 22.295C50.3691 22.3024 50.387 22.3113 50.4074 22.3214L50.4429 22.3392C50.4484 22.3419 50.4553 22.3454 50.4606 22.3481C50.4661 22.3508 50.4728 22.3544 50.4783 22.3571L51.0979 22.5899C51.1042 22.5921 51.111 22.595 51.1174 22.5971C51.1236 22.5992 51.1303 22.6024 51.1367 22.6044C51.143 22.6065 51.1496 22.6095 51.1562 22.6115L51.312 22.6424C51.3189 22.6442 51.3255 22.647 51.332 22.6489L51.6484 22.7325C51.7153 22.7458 51.6949 22.735 51.7593 22.7549C51.8352 22.7785 51.7115 22.7577 51.8385 22.7823C51.8817 22.7907 51.8982 22.7853 51.9382 22.7895C52.1591 22.8121 51.9409 22.8145 52.1275 22.84C52.1908 22.8487 52.2752 22.8341 52.3384 22.8428C52.5281 22.8688 52.3038 22.8769 52.5259 22.8952C52.5902 22.9005 52.6773 22.888 52.7415 22.8933C52.9483 22.9104 52.7271 22.9525 53.3827 22.9461C53.5252 22.9448 53.5412 22.9706 53.6542 22.9947C53.6632 22.9966 53.6723 22.9984 53.6815 23H54.2366L54.2632 22.6827C54.2653 22.6765 54.2691 22.6704 54.2712 22.6642L54.291 22.5251C54.3137 22.3081 54.3272 22.526 54.3435 22.3127L54.3783 22.0828C54.4135 21.9769 54.3799 21.924 54.4082 21.8215L54.4236 21.7839C54.4258 21.7777 54.4297 21.7717 54.4317 21.7655C54.4338 21.7591 54.4372 21.7529 54.439 21.7462C54.4615 21.6649 54.4391 21.5856 54.4616 21.5043C54.5101 21.3293 54.5036 21.224 54.5223 21.1679L54.5572 20.9379C54.5742 20.716 54.5936 20.9483 54.6107 20.7264L54.6455 20.4965C54.6831 20.3835 54.6627 20.2902 54.6987 20.1791C54.7007 20.1726 54.7039 20.1664 54.7058 20.1597C54.7223 20.0979 54.7123 20.0991 54.7185 20.04C54.7412 19.8231 54.7547 20.041 54.7709 19.8276C54.7881 19.6032 54.8243 19.5623 54.8243 19.3517C54.4438 19.3517 54.4894 19.335 54.2128 19.2961L54.0913 19.2576C54.0215 19.2394 53.9899 19.2526 53.9221 19.24L53.6661 19.1496C53.5725 19.1037 53.4706 19.0809 53.3932 19.0231C53.2818 18.9397 53.1919 18.9296 53.0874 18.8234L52.7045 18.3828L52.5339 17.9172C52.5184 17.8483 52.529 17.852 52.5073 17.7849C52.4659 17.6566 52.4963 17.5307 52.4681 17.4007C52.4321 17.2343 52.4196 17.2276 52.42 16.9989V0L48.0387 0.74027Z" fill="white"/>
<path fill-rule="evenodd" clip-rule="evenodd" d="M38.421 0.74027C38.2281 0.817316 38.3676 16.087 38.3676 17.5805C38.3676 17.7764 38.3497 18.0521 38.4024 18.2069C38.4607 18.3778 38.3929 18.6704 38.4477 18.823C38.4644 18.8693 38.4543 18.7696 38.4731 18.9037C38.4912 19.0328 38.4704 19.0952 38.5092 19.2115C38.5436 19.3142 38.5294 19.4291 38.5617 19.5297C38.574 19.5675 38.5678 19.5424 38.5781 19.5928L38.8569 20.4801C38.8597 20.4854 38.8633 20.4922 38.8661 20.4975L38.884 20.5326C38.8868 20.538 38.8902 20.5448 38.893 20.5502C38.9033 20.5703 38.9122 20.5883 38.9197 20.603L39.1926 21.0468C39.1958 21.0515 39.2001 21.058 39.2032 21.0628L39.2627 21.1626C39.2983 21.2077 39.3295 21.2244 39.3705 21.2674C39.3711 21.268 39.417 21.3254 39.4176 21.3264C39.4427 21.3659 39.4297 21.3559 39.4547 21.3955L40.843 22.3481C40.8483 22.3508 40.8552 22.3544 40.8606 22.3571C40.8679 22.3608 40.8882 22.3717 40.8956 22.3753L41.5386 22.6115C41.5453 22.6136 41.5519 22.616 41.5589 22.6178C41.5661 22.6197 41.573 22.6213 41.5805 22.6229L41.908 22.6953C41.9149 22.6971 41.9215 22.6998 41.9282 22.7019L42.3204 22.7895C42.5415 22.8121 42.3233 22.8145 42.5099 22.84C42.5731 22.8487 42.6574 22.8341 42.7208 22.8428C42.9104 22.8688 42.6862 22.8769 42.9082 22.8952C42.9725 22.9005 43.0596 22.888 43.1239 22.8933C43.3306 22.9104 43.1094 22.9525 43.765 22.9461C43.9215 22.9446 43.9746 22.991 44.113 23H44.5976H44.619L44.6456 22.6827C44.6477 22.6765 44.6515 22.6704 44.6536 22.6642L44.6733 22.5251C44.6961 22.3081 44.7096 22.526 44.7258 22.3127L44.7606 22.0828C44.7958 21.9769 44.7622 21.924 44.7905 21.8215L44.8059 21.7839C44.8081 21.7777 44.812 21.7717 44.814 21.7655C44.8162 21.7591 44.8195 21.7529 44.8213 21.7462C44.8439 21.6649 44.8214 21.5856 44.844 21.5043C44.8925 21.3293 44.886 21.224 44.9047 21.1679L44.9395 20.9379C44.9565 20.716 44.976 20.9483 44.993 20.7264L45.0278 20.4965C45.0635 20.3892 45.031 20.3198 45.065 20.2161L45.1008 20.04C45.1235 19.8231 45.137 20.041 45.1533 19.8276C45.1565 19.786 45.1495 19.7391 45.155 19.6972C45.1757 19.5429 45.1622 19.6742 45.1881 19.5977C45.2169 19.5128 45.2067 19.4525 45.2067 19.3517C44.8261 19.3517 44.8717 19.335 44.595 19.2961L44.2435 19.221C44.2372 19.2189 44.2306 19.2156 44.2243 19.2135L43.7756 19.0231C43.7389 18.9957 43.7664 19.0124 43.7289 18.9901C43.6218 18.9263 43.5656 18.9208 43.4698 18.8234C43.4522 18.8056 43.4342 18.7875 43.4167 18.7701L43.1628 18.519C43.1321 18.4809 43.1543 18.5115 43.1309 18.4714C43.1297 18.4694 43.1055 18.4209 43.1043 18.4184L42.9964 18.1551C42.99 18.1363 42.9886 18.1349 42.9821 18.1162C42.9758 18.0978 42.9709 18.0819 42.9625 18.0565L42.8575 17.4729C42.8565 17.4446 42.8564 17.4284 42.8504 17.4007C42.8144 17.2343 42.8019 17.2276 42.8023 16.9989V0L38.5259 0.685382C38.3633 0.700121 38.4534 0.660988 38.421 0.74027Z" fill="white"/>
<path fill-rule="evenodd" clip-rule="evenodd" d="M65.7363 8.65914L70.9604 7.93107L72.403 2.48511L67.1667 3.22528L65.7363 8.65914Z" fill="#6F53F8"/>
</svg>
