<svg width="85" height="27" viewBox="0 0 85 27" fill="none" xmlns="http://www.w3.org/2000/svg">
<g clip-path="url(#clip0_1_2174)">
<path fill-rule="evenodd" clip-rule="evenodd" d="M0.00537109 25.5729H5.46221V15.8901H14.3689V25.5729H19.8257V1.61426H14.3689V11.297H5.46221V1.61426H0.00537109V25.5729Z" fill="#D8D9D9"/>
<path fill-rule="evenodd" clip-rule="evenodd" d="M35.82 14.9589H29.1088L29.1578 14.604C29.2218 14.3659 29.2633 14.0961 29.3442 13.8575C29.3858 13.7567 29.4364 13.6506 29.4714 13.5488C29.524 13.3954 29.5921 13.2634 29.6617 13.1164C29.666 13.1079 29.6783 13.0836 29.6831 13.0756L30.3223 12.3116C30.3698 12.282 30.3569 12.298 30.4041 12.2684L31.0741 11.8451C31.0805 11.8419 31.0886 11.838 31.095 11.8348L31.2192 11.7715C31.2259 11.7684 31.2339 11.7646 31.2408 11.7617L31.2863 11.7448C31.2939 11.7422 31.3025 11.74 31.3103 11.7375L31.7493 11.6134C31.8681 11.5892 31.9821 11.624 32.0977 11.5856L32.4643 11.545C32.5854 11.5456 32.7598 11.5342 32.8733 11.544C32.9245 11.5484 32.9085 11.5456 32.9531 11.5582L33.2485 11.6071C33.3968 11.6181 33.5983 11.6905 33.7439 11.7375L34.42 12.0927C34.4259 12.0962 34.4345 12.1 34.4405 12.1035C34.5699 12.1783 34.6673 12.296 34.795 12.3734L35.2156 12.8881C35.2258 12.904 35.2475 12.9284 35.27 12.9584L35.3501 13.0963C35.3533 13.1028 35.3573 13.1109 35.3604 13.1173C35.3635 13.1237 35.3675 13.1318 35.3706 13.1381L35.5379 13.5313C35.5404 13.5388 35.5437 13.5467 35.5462 13.554L35.562 13.6005C35.5715 13.6296 35.5742 13.6427 35.5841 13.6718L35.7983 14.546C35.836 14.6572 35.82 14.8247 35.82 14.9589ZM39.7089 25.2002L39.7154 24.8214C39.7039 24.7653 39.7115 24.7275 39.7094 24.6722L39.5838 23.9274C39.5771 23.7576 39.5429 23.8124 39.5208 23.5244L39.4893 23.4003C39.4559 23.3055 39.4692 23.2231 39.4559 23.1231C39.4263 22.9012 39.4152 23.1641 39.3953 22.9038C39.3915 22.855 39.3997 22.7998 39.3932 22.7507C39.3691 22.5705 39.3836 22.7216 39.3544 22.6339C39.3154 22.5168 39.3461 22.4953 39.3304 22.3783C39.303 22.1726 39.2767 22.401 39.2682 22.1295C39.2643 22.0078 39.2851 21.98 39.248 21.8701L39.2072 21.6002C39.187 21.3382 39.1621 21.6138 39.1447 21.3518C39.1422 21.3135 39.1503 21.2268 39.1446 21.1967C39.1265 21.1018 39.1638 21.1365 39.0816 21.1037L38.8935 21.0417L38.7474 21.1453C38.7399 21.1481 41.0063 23.8346 40.9986 23.8371C40.9907 23.8396 38.7073 21.1574 38.6993 21.1599L38.4379 21.2425C38.4303 21.2451 38.4222 21.2481 38.4147 21.2506C35.1147 22.3711 30.5603 22.5908 29.1303 18.8479L29.1088 18.4968H40.7752C40.7752 18.2757 40.7572 17.9657 40.8162 17.7926C40.8458 17.7053 40.8401 17.6729 40.8391 17.5669L40.8382 15.5793C40.8388 15.5139 40.8446 15.3967 40.8317 15.3375C40.8041 15.2111 40.7859 15.2811 40.7739 15.1463C40.7624 15.0145 40.7967 14.8444 40.769 14.7168C40.7443 14.6034 40.7114 14.6238 40.7125 14.4313C40.7137 14.209 40.6717 14.2673 40.6518 14.1189L40.5392 13.4856C40.5235 13.4294 40.531 13.4314 40.5205 13.3798L40.3952 12.8832C40.3934 12.8739 40.3927 12.8658 40.3906 12.8567C40.3887 12.848 40.3868 12.8402 40.3845 12.8317L40.0741 11.9596C40.0709 11.9532 40.0664 11.9456 40.0634 11.9392C40.0603 11.9326 40.0563 11.9247 40.0534 11.918L39.8134 11.3795C39.7361 11.2267 39.6734 11.0764 39.5691 10.9387C39.538 10.8976 39.5467 10.9131 39.5196 10.8635L38.9669 10.076C38.9634 10.07 38.9597 10.0615 38.9562 10.0554L38.0782 9.15529C38.0687 9.14575 38.0239 9.09921 38.0167 9.09205L37.4089 8.63839C37.403 8.63482 37.3944 8.63112 37.3884 8.62766L36.9459 8.35179C36.9404 8.34797 36.9328 8.34272 36.9273 8.33914L36.8242 8.28604C36.8177 8.28282 36.8095 8.279 36.803 8.2759L36.6773 8.21409C36.6709 8.21087 36.6628 8.20693 36.6564 8.20371L36.2768 8.02079C36.2691 8.01817 36.2605 8.01614 36.2525 8.01363L35.7372 7.80995C35.7308 7.80685 35.7231 7.80231 35.7166 7.79933L34.573 7.5033C34.4433 7.47752 34.5158 7.45891 34.3775 7.44853L34.0577 7.39269C33.9406 7.36787 33.8098 7.40498 33.6938 7.38028C33.5661 7.35331 33.6369 7.33505 33.5005 7.32324L31.5878 7.32587C31.4343 7.34818 31.5418 7.33792 31.4923 7.35546L29.8217 7.71963C26.0717 8.988 25.0592 11.1034 23.934 14.6485L23.9012 14.9883C23.3929 18.6193 23.9835 21.4871 26.6459 24.1617C29.6798 26.5709 34.2777 26.8992 37.93 25.7986L38.1573 25.7442C38.3033 25.7053 38.4505 25.6609 38.5964 25.6201C38.604 25.6176 38.6121 25.6146 38.6196 25.612C38.6271 25.6095 38.6352 25.6063 38.6426 25.6038L39.2302 25.4093C39.2377 25.4068 39.2458 25.4038 39.2535 25.4013L39.5209 25.2935C39.6283 25.2503 39.6687 25.2987 39.7089 25.2002Z" fill="#D8D9D9"/>
<path fill-rule="evenodd" clip-rule="evenodd" d="M78.8477 16.7278C78.7944 16.8809 78.8892 17.3319 78.8346 17.5216L78.7981 17.6098C78.7811 17.6699 78.7842 17.6856 78.7838 17.7507L78.558 18.8307C78.5554 18.8381 78.552 18.846 78.5494 18.8532L77.6405 20.5296L77.0697 21.02C77.064 21.0237 77.0562 21.0283 77.0503 21.0318L76.9445 21.0824C76.92 21.0942 76.8857 21.1104 76.8626 21.1255L76.0258 21.4456L75.6819 21.4777C75.4595 21.5081 75.7222 21.5168 75.4619 21.5393C74.9839 21.5805 74.9806 21.4759 74.7093 21.4749L73.7457 21.2181C73.4319 21.062 73.1698 20.854 72.8732 20.5607L72.672 20.3564C72.6682 20.3509 72.6635 20.343 72.6599 20.3373L72.158 19.5306C72.1388 19.4782 72.141 19.4638 72.1226 19.4103L71.9879 19.0782C71.9854 19.0708 71.9822 19.0628 71.9796 19.0554L71.9631 19.0097C71.9512 18.9742 71.9454 18.9504 71.9334 18.9149L71.9004 18.8235C71.8883 18.7881 71.8823 18.7642 71.8703 18.7291L71.6974 17.9382C71.6776 17.6795 71.6682 17.9392 71.6362 17.7195C71.6244 17.6388 71.6427 17.5227 71.6357 17.4405C71.6143 17.1843 71.6058 17.4418 71.5734 17.2228C71.5407 17.0016 71.5375 15.7173 71.6128 15.4959C71.6362 15.4272 71.6331 15.4574 71.637 15.3645C71.6591 14.8281 71.6287 15.1907 71.69 14.8894C71.7003 14.8392 71.6936 14.8203 71.6986 14.7738C71.7139 14.627 71.6811 14.835 71.7047 14.7178C71.7234 14.6256 71.7204 14.6731 71.7287 14.6485C71.7725 14.5194 71.7399 14.4973 71.8553 14.1531C71.8578 14.1457 71.8615 14.138 71.8638 14.1304C71.8662 14.1225 71.8691 14.1148 71.8712 14.1067L72.3658 12.9513C72.369 12.9448 72.3726 12.9365 72.3758 12.9302L72.49 12.7639C72.5155 12.7247 72.5021 12.7388 72.5233 12.7038L72.9517 12.1967C72.9581 12.1903 72.9763 12.1716 72.9827 12.1652L73.3491 11.8761C73.3548 11.8725 73.3629 11.8681 73.3689 11.8646L73.7231 11.6564C73.7294 11.6533 73.7375 11.6494 73.7443 11.6464C73.751 11.6434 73.7591 11.6398 73.7661 11.6371L73.9783 11.5678C73.9859 11.5652 73.994 11.5621 74.0016 11.5596C74.0309 11.5501 74.0445 11.5474 74.0737 11.5379L74.3076 11.4591C74.3148 11.4565 74.3226 11.4527 74.3299 11.4501C74.3373 11.4476 74.3449 11.4438 74.3525 11.4414C74.3602 11.439 74.3677 11.4354 74.3757 11.4334C74.4868 11.4051 74.5962 11.429 74.708 11.3898C74.7153 11.3873 74.7225 11.3828 74.7299 11.3804C74.9201 11.3172 75.6266 11.3438 75.7963 11.3993C75.9036 11.4344 75.9869 11.3944 76.3158 11.5057L76.5053 11.5666C76.5124 11.5693 76.5206 11.5726 76.5274 11.5756L76.9255 11.7714C76.931 11.7751 76.9388 11.7799 76.9448 11.7834L77.1134 11.8646C77.2152 11.9225 77.3493 12.0728 77.3642 12.082L77.4051 12.1036C77.549 12.1846 77.6525 12.3171 77.7406 12.4544C77.7442 12.4602 77.7489 12.4681 77.7527 12.4735C77.7942 12.5315 77.8314 12.5449 77.873 12.6027L77.942 12.7206C77.943 12.7221 77.9717 12.756 77.9838 12.7724C77.9876 12.7777 77.9935 12.7847 77.9973 12.7901L78.1796 13.0753C78.1838 13.0837 78.1956 13.1087 78.1998 13.1173C78.2117 13.1411 78.2296 13.1767 78.2414 13.2002C78.2446 13.2065 78.2592 13.2353 78.2623 13.2416L78.3254 13.3654C78.3286 13.3718 78.3328 13.3796 78.336 13.386L78.3682 13.4473C78.3712 13.4539 78.375 13.4619 78.3779 13.4685L78.6453 14.2593C78.6474 14.2676 78.6494 14.2756 78.6513 14.2842L78.7005 14.4838C78.7334 14.5903 78.7096 14.6436 78.7444 14.7508C78.7839 14.8725 78.7714 15.082 78.8164 15.2072C78.8341 15.2562 78.8238 15.1498 78.8463 15.3017C78.8513 15.3354 78.8493 15.4167 78.8489 15.4543C78.8472 15.6241 78.8178 15.8418 78.854 16.0078C78.8858 16.1536 78.86 16.0134 78.8887 16.0976C78.9276 16.212 78.9138 16.3829 78.9131 16.5131C78.9116 16.7886 78.8789 16.6385 78.8477 16.7278ZM81.7932 9.55887C81.6623 9.49706 77.7539 10.1284 77.1685 10.1653C77.2546 9.71351 77.4353 9.15784 77.5511 8.71074C77.6261 8.42199 77.9071 7.48735 77.907 7.26231C77.747 7.26231 77.6343 7.2221 77.4907 7.17759L77.2808 7.13702C77.0267 7.11101 77.2737 7.10993 77.0569 7.07939C77.0151 7.07342 76.9797 7.07867 76.938 7.07283C76.7277 7.04312 76.9513 7.04479 76.7451 7.01555C76.7081 7.0103 76.6298 7.01329 76.5898 7.014C76.481 7.01603 76.4506 7.02235 76.3607 6.9924C76.0729 6.89659 74.9595 6.95339 74.5198 6.95183C74.0812 6.9504 74.2092 6.99026 74.0479 7.01245C73.9736 7.02259 73.8745 7.00541 73.8002 7.01555C73.577 7.04622 73.8416 7.05636 73.5791 7.07617C73.4619 7.08488 73.4612 7.06197 73.35 7.09764L72.5525 7.30156C72.545 7.30419 72.5369 7.30717 72.5293 7.30968L72.2454 7.40108C72.2378 7.40358 72.2297 7.40657 72.2221 7.40919L72.011 7.47947C72.0035 7.4821 71.9954 7.4852 71.9879 7.4877C71.9804 7.49033 71.9723 7.49331 71.9647 7.49582C71.934 7.5056 71.9209 7.50751 71.8918 7.51682L71.4662 7.68518C71.4575 7.68936 71.4337 7.70224 71.4251 7.70666C71.4188 7.70988 71.4107 7.71406 71.4044 7.71716L71.1538 7.84161C71.1537 7.84161 71.1121 7.86225 71.112 7.86225C71.1056 7.86547 71.0975 7.86941 71.0911 7.87263L70.018 8.51768C70.0127 8.5215 70.0055 8.52723 70.0001 8.53092L69.711 8.74129C69.6986 8.74857 69.682 8.75537 69.6696 8.76253C69.5436 8.83543 69.4603 8.97909 69.3346 9.05176L68.765 9.57426C68.7497 9.58906 68.7178 9.61853 68.7168 9.61961C68.7045 9.6319 68.6668 9.67259 68.6578 9.68547L67.7574 10.9047C67.753 10.9132 67.7407 10.9376 67.7359 10.9456C67.7324 10.9515 67.7277 10.9592 67.7241 10.9648L67.4532 11.4416C67.4442 11.4592 67.434 11.4795 67.4218 11.5037C67.4186 11.51 67.4146 11.518 67.4113 11.5243C67.4082 11.5306 67.4041 11.5388 67.4008 11.5451L67.2232 11.8967C67.2226 11.8979 67.2028 11.9369 67.2022 11.9381C67.1899 11.9626 67.1728 11.9965 67.1604 12.0208L67.1286 12.0825C67.1253 12.0887 67.121 12.0966 67.1178 12.1028L66.8605 12.7793C66.8581 12.787 66.8555 12.7952 66.8529 12.8028C66.8504 12.8102 66.8474 12.8182 66.8447 12.8258L66.6312 13.4523C66.6168 13.5064 66.623 13.5095 66.6131 13.5585L66.5939 13.6327C66.5277 13.8419 66.5287 14.0704 66.4693 14.2543C66.467 14.2615 66.4624 14.2687 66.46 14.276L66.4283 14.4307C66.4192 14.6542 66.3618 14.6878 66.3659 14.8968L66.3598 15.0767C66.3372 15.1807 66.3009 15.1965 66.3014 15.3605C66.3021 15.6171 66.3552 16.0598 66.2895 16.2809L66.2601 16.3482C66.2176 16.4773 66.2738 16.4772 66.2967 16.5785C66.3651 16.8806 66.2435 17.3189 66.3095 17.6216C66.3371 17.7483 66.3557 17.6777 66.3671 17.8129C66.374 17.8951 66.3558 18.0112 66.3675 18.0919C66.4005 18.3195 66.3959 18.0527 66.4266 18.2816C66.4422 18.3987 66.4116 18.4202 66.4506 18.5372C66.4791 18.6232 66.4545 18.4789 66.4849 18.6274L66.4978 18.8628C66.4996 18.8715 66.5023 18.879 66.5046 18.8872L66.5942 19.2019C66.5966 19.2096 66.5998 19.2173 66.602 19.2252C66.6043 19.2335 66.6063 19.2415 66.6084 19.25L66.828 20.0257C66.8305 20.0332 66.8338 20.0411 66.8364 20.0485C66.8389 20.0559 66.8422 20.0639 66.8447 20.0713L66.9713 20.3804C66.9921 20.4347 66.9828 20.4229 66.9998 20.4765L67.024 20.5456C67.0269 20.5522 67.0309 20.5601 67.034 20.5667L67.2231 21.0003C67.2264 21.0066 67.2303 21.0146 67.2336 21.0209L67.3278 21.2071C67.332 21.2155 67.3443 21.24 67.3486 21.2485L67.5367 21.6209C67.54 21.6272 67.5441 21.6352 67.5472 21.6416C67.5505 21.648 67.5544 21.656 67.5577 21.6623L67.5987 21.7459C67.7166 21.9811 67.675 21.831 67.7574 21.9922L67.8432 22.1556C67.8438 22.1565 67.8976 22.2229 67.8989 22.2246L68.0483 22.4492C68.0518 22.4551 68.0557 22.4635 68.0592 22.4694L68.2136 22.6579C68.2176 22.6634 68.2222 22.6714 68.2258 22.677L68.4202 22.9191C68.5519 23.045 68.622 23.1814 68.7807 23.3381L69.1885 23.7416C69.2114 23.7644 69.2284 23.7808 69.2511 23.8037L69.3791 23.9253C69.6199 24.0909 69.6086 24.1217 69.7737 24.2177C69.7796 24.2211 69.788 24.2251 69.7938 24.2288C69.7996 24.2323 69.8077 24.2369 69.8131 24.2407C69.8207 24.2459 69.8407 24.2628 69.8476 24.2687L70.9866 24.9726C70.9929 24.9758 71.001 24.9798 71.0074 24.983L71.6978 25.2929C71.7047 25.2957 71.7127 25.2997 71.7193 25.3028C71.7258 25.3057 71.7335 25.3102 71.7399 25.3133L72.3644 25.5333C72.3719 25.5358 72.3798 25.539 72.3873 25.5416L73.1223 25.7453C73.1878 25.762 73.1698 25.7532 73.2341 25.7588C73.299 25.7645 73.2797 25.7551 73.3458 25.7724C73.3537 25.7745 73.3612 25.7783 73.3688 25.7806L73.789 25.8614C73.8975 25.8975 74.0527 25.8817 74.1767 25.8812L74.4163 25.9235C74.5271 25.9605 75.9759 25.9687 76.1061 25.9321L76.1725 25.9045C76.1799 25.9021 76.1874 25.8982 76.1952 25.896C76.2769 25.873 76.3765 25.8822 76.4651 25.8838C76.5717 25.8858 76.6061 25.8904 76.6933 25.8614L77.0916 25.7899C77.3076 25.7168 77.5164 25.738 77.7429 25.6586L78.0869 25.5644C78.0955 25.5625 78.1036 25.5606 78.1121 25.5585L78.369 25.4712C78.3765 25.4686 78.3846 25.4656 78.3922 25.4631C78.428 25.4513 78.4521 25.4456 78.488 25.4338C78.4955 25.4313 78.5036 25.4283 78.5112 25.4258C78.5187 25.4233 78.5267 25.42 78.5342 25.4174L78.9302 25.2507C78.9367 25.2476 78.9445 25.2433 78.951 25.2404L78.995 25.2217C79.0024 25.219 79.0107 25.2164 79.0183 25.2137C79.026 25.2112 79.0346 25.2091 79.0424 25.2067L80.682 24.2844L81.1056 23.9277C81.2181 23.8141 81.3528 23.7484 81.4665 23.6331C81.5051 23.594 81.5137 23.5862 81.5448 23.5554L81.8428 23.1985C81.9219 23.0977 82.0601 23.0124 82.1383 22.9012L82.5885 22.2606C82.5921 22.2548 82.5964 22.2467 82.6001 22.241L83.207 21.1658C83.2103 21.1596 83.2144 21.1516 83.2177 21.1453C83.2209 21.1391 83.2251 21.1311 83.2284 21.1249L83.5669 20.2806C83.5694 20.2729 83.5724 20.265 83.5749 20.2575L83.63 20.0946C83.6326 20.0872 83.6359 20.0795 83.6385 20.0721C83.6419 20.0626 83.6526 20.0367 83.6556 20.0269L83.9778 18.7629C83.9965 18.6947 83.989 18.6917 83.991 18.6209C83.9971 18.4058 84.0436 18.4214 84.0521 18.1538C84.054 18.094 84.0515 18.0984 84.0669 18.0442C84.0691 18.0366 84.073 18.0292 84.0756 18.0218L84.0946 17.9786C84.0972 17.9712 84.1011 17.9638 84.1033 17.9562C84.1263 17.876 84.1178 17.7773 84.1167 17.6901C84.1115 17.2647 84.1537 17.3854 84.1777 17.2228C84.2084 17.0152 84.1935 15.6452 84.1573 15.539C84.1287 15.4547 84.1544 15.5951 84.1227 15.4493C84.0884 15.2915 84.1385 15.0889 84.115 14.9293C84.0826 14.7099 84.0728 14.9683 84.0529 14.7114C84.0469 14.6344 84.0638 14.5454 84.0475 14.4684C84.0166 14.3228 84.0393 14.459 84.0131 14.3784L83.7253 13.1424C83.7228 13.1349 83.7197 13.1269 83.7171 13.1195L83.7003 13.0741C83.6978 13.0665 83.6948 13.0585 83.6923 13.051L83.6544 12.9333C83.6511 12.9238 83.6409 12.8973 83.6376 12.8878C83.627 12.857 83.6206 12.8334 83.6075 12.7935C83.605 12.7859 83.6024 12.7777 83.5999 12.77C83.5974 12.7625 83.5942 12.7545 83.5917 12.7471L81.95 9.80956C81.9462 9.80396 81.8994 9.75122 81.8916 9.74322C81.8871 9.73869 81.8806 9.73213 81.876 9.72759L81.7932 9.55887Z" fill="#D8D9D9"/>
<path fill-rule="evenodd" clip-rule="evenodd" d="M56.3929 0.869012C56.1665 0.959458 56.3301 18.8848 56.3301 20.6379C56.3301 20.868 56.3092 21.1916 56.3711 21.3733C56.4023 21.4652 56.3947 21.5196 56.3935 21.6305C56.3926 21.7136 56.3914 21.798 56.3911 21.8811C56.391 21.9097 56.3906 21.9762 56.3944 22.002C56.4167 22.1525 56.4568 22.0923 56.4556 22.3138C56.4544 22.538 56.4989 22.5226 56.5183 22.7794L56.9365 24.1035C56.9396 24.1098 56.9437 24.1178 56.947 24.1241C56.9589 24.1478 56.9695 24.1689 56.9783 24.1862L57.7884 25.3088C57.8291 25.35 57.8354 25.3612 57.8659 25.3871L57.9817 25.4589C57.9877 25.4623 57.996 25.4663 58.0019 25.4698C58.0076 25.4734 58.0157 25.4779 58.0212 25.4818L58.7553 25.9966C58.781 26.0092 58.7999 26.0186 58.8181 26.0275L59.1109 26.1724C59.1286 26.1811 59.1496 26.1915 59.1736 26.2034L59.2153 26.2243C59.2217 26.2274 59.2297 26.2316 59.236 26.2347C59.2424 26.2379 59.2504 26.2421 59.2568 26.2453L59.9841 26.5185C59.9916 26.5212 59.9995 26.5245 60.007 26.527C60.0143 26.5295 60.0222 26.5332 60.0297 26.5356C60.0371 26.5381 60.0448 26.5416 60.0526 26.544L60.2355 26.5802C60.2436 26.5824 60.2513 26.5856 60.259 26.5879L60.6304 26.6859C60.7089 26.7016 60.685 26.6889 60.7606 26.7123C60.8497 26.74 60.7044 26.7155 60.8536 26.7444C60.9042 26.7543 60.9236 26.748 60.9705 26.7529C61.2299 26.7794 60.9738 26.7822 61.1927 26.8122C61.2671 26.8223 61.3661 26.8053 61.4404 26.8154C61.6631 26.846 61.3998 26.8555 61.6605 26.877C61.7359 26.8832 61.8382 26.8685 61.9136 26.8747C62.1564 26.8948 61.8967 26.9443 62.6663 26.9368C62.8336 26.9352 62.8524 26.9655 62.985 26.9938C62.9956 26.9961 63.0062 26.9981 63.0171 27H63.6687L63.6999 26.6275C63.7024 26.6202 63.7069 26.613 63.7093 26.6058L63.7326 26.4425C63.7592 26.1878 63.775 26.4436 63.7942 26.1932L63.8351 25.9233C63.8763 25.7989 63.8369 25.7369 63.8702 25.6166L63.8882 25.5724C63.8908 25.5652 63.8954 25.5581 63.8978 25.5509C63.9002 25.5433 63.9042 25.5361 63.9063 25.5282C63.9327 25.4327 63.9064 25.3397 63.9329 25.2442C63.9898 25.0387 63.9822 24.9151 64.0041 24.8492L64.045 24.5792C64.065 24.3187 64.0878 24.5915 64.1078 24.331L64.1487 24.0611C64.1928 23.9284 64.1689 23.8189 64.2111 23.6885C64.2136 23.6809 64.2173 23.6736 64.2195 23.6657C64.2389 23.5932 64.2271 23.5946 64.2344 23.5253C64.2611 23.2706 64.2769 23.5263 64.2959 23.2759C64.3161 23.0124 64.3586 22.9645 64.3586 22.7172C63.9119 22.7172 63.9654 22.6977 63.6407 22.652L63.4982 22.6067C63.4162 22.5854 63.379 22.6009 63.2995 22.5861L62.999 22.48C62.8891 22.4261 62.7695 22.3994 62.6786 22.3315C62.5478 22.2336 62.4423 22.2217 62.3197 22.097L61.8701 21.5799L61.6699 21.0333C61.6517 20.9524 61.6641 20.9566 61.6386 20.8779C61.59 20.7273 61.6257 20.5795 61.5926 20.4269C61.5504 20.2315 61.5357 20.2237 61.5361 19.9552V0L56.3929 0.869012Z" fill="#D8D9D9"/>
<path fill-rule="evenodd" clip-rule="evenodd" d="M45.1028 0.869012C44.8764 0.959458 45.0401 18.8848 45.0401 20.6379C45.0401 20.868 45.0192 21.1916 45.081 21.3733C45.1494 21.5739 45.0698 21.9174 45.1342 22.0965C45.1537 22.1509 45.1419 22.0339 45.164 22.1913C45.1852 22.3428 45.1608 22.4161 45.2064 22.5527C45.2467 22.6732 45.2301 22.808 45.268 22.9262C45.2824 22.9705 45.2751 22.9411 45.2872 23.0003L45.6146 24.0418C45.6178 24.0481 45.622 24.056 45.6253 24.0623L45.6464 24.1035C45.6497 24.1098 45.6536 24.1178 45.6569 24.1241C45.669 24.1478 45.6794 24.1689 45.6882 24.1862L46.0086 24.7071C46.0124 24.7126 46.0174 24.7203 46.021 24.7259L46.0909 24.843C46.1327 24.896 46.1693 24.9156 46.2175 24.9661C46.2182 24.9668 46.2721 25.0342 46.2728 25.0354C46.3022 25.0817 46.2869 25.07 46.3163 25.1164L47.9461 26.2347C47.9523 26.2379 47.9604 26.2421 47.9667 26.2453C47.9752 26.2496 47.9991 26.2625 48.0078 26.2667L48.7626 26.544C48.7704 26.5463 48.7783 26.5492 48.7865 26.5514C48.7949 26.5535 48.803 26.5554 48.8118 26.5573L49.1963 26.6423C49.2044 26.6444 49.2121 26.6476 49.22 26.65L49.6804 26.7529C49.9399 26.7794 49.6838 26.7822 49.9028 26.8122C49.9771 26.8223 50.076 26.8053 50.1504 26.8154C50.373 26.846 50.1098 26.8555 50.3704 26.877C50.4459 26.8832 50.5481 26.8685 50.6236 26.8747C50.8663 26.8948 50.6066 26.9443 51.3762 26.9368C51.56 26.935 51.6223 26.9894 51.7847 27H52.3536H52.3787L52.4099 26.6275C52.4125 26.6202 52.4169 26.613 52.4193 26.6058L52.4425 26.4425C52.4693 26.1878 52.4851 26.4436 52.5041 26.1932L52.545 25.9233C52.5863 25.7989 52.5468 25.7369 52.5801 25.6166L52.5982 25.5724C52.6007 25.5652 52.6053 25.5581 52.6077 25.5509C52.6102 25.5433 52.6141 25.5361 52.6162 25.5282C52.6428 25.4327 52.6164 25.3397 52.6429 25.2442C52.6998 25.0387 52.6922 24.9151 52.7142 24.8492L52.755 24.5792C52.7749 24.3187 52.7978 24.5915 52.8177 24.331L52.8586 24.0611C52.9006 23.9351 52.8623 23.8536 52.9023 23.7319L52.9443 23.5253C52.971 23.2706 52.9868 23.5263 53.006 23.2759C53.0097 23.2271 53.0015 23.172 53.008 23.1228C53.0322 22.9417 53.0164 23.0958 53.0468 23.006C53.0806 22.9063 53.0687 22.8356 53.0687 22.7172C52.6219 22.7172 52.6753 22.6977 52.3506 22.652L51.9379 22.5638C51.9305 22.5613 51.9228 22.5575 51.9155 22.5549L51.3887 22.3315C51.3456 22.2992 51.3779 22.3189 51.3338 22.2927C51.2081 22.2179 51.1422 22.2114 51.0297 22.097C51.0091 22.0761 50.9879 22.0549 50.9674 22.0345L50.6693 21.7397C50.6332 21.695 50.6593 21.7309 50.6318 21.6838C50.6305 21.6815 50.602 21.6245 50.6006 21.6216L50.474 21.3125C50.4665 21.2904 50.4648 21.2888 50.4572 21.2669C50.4497 21.2453 50.4441 21.2266 50.4342 21.1967L50.3109 20.5117C50.3097 20.4784 50.3096 20.4594 50.3026 20.4269C50.2603 20.2315 50.2456 20.2237 50.2461 19.9552V0L45.226 0.804579C45.0351 0.821881 45.1408 0.775942 45.1028 0.869012Z" fill="#D8D9D9"/>
<path fill-rule="evenodd" clip-rule="evenodd" d="M77.1685 10.1648L83.301 9.31008L84.9945 2.91699L78.8476 3.78589L77.1685 10.1648Z" fill="#6F53F8"/>
</g>
<defs>
<clipPath id="clip0_1_2174">
<rect width="85" height="27" fill="white"/>
</clipPath>
</defs>
</svg>
